C:\Users\movea\Dropbox\PhDWork\ExperimentalData\subject9\100\P9S100W06_filtered35.mot
nRows=6
nColumns=28

name C:\Users\movea\Dropbox\PhDWork\ExperimentalData\subject9\100\P9S100W06_filtered35.mot
datacolumns 28
datarows 6
range 2.0770000000 2.0820000000
endheader
time	ground_force_1_vx	ground_force_1_vy	ground_force_1_vz	ground_force_1_px	ground_force_1_py	ground_force_1_pz	ground_moment_1_mx	ground_moment_1_my	ground_moment_1_mz	ground_force_2_vx	ground_force_2_vy	ground_force_2_vz	ground_force_2_px	ground_force_2_py	ground_force_2_pz	ground_moment_2_mx	ground_moment_2_my	ground_moment_2_mz	ground_force_3_vx	ground_force_3_vy	ground_force_3_vz	ground_force_3_px	ground_force_3_py	ground_force_3_pz	ground_moment_3_mx	ground_moment_3_my	ground_moment_3_mz
        2.0770000000	       -0.0244590282	        0.0000000000	       -0.0603228703	        0.1988394961	        0.0000558755	       -0.3004071324	       -0.0378784653	        0.0001237818	        0.0472808818	       -0.0000000000	        0.0000000000	        0.0000000000	        0.2029003516	       -0.0000795827	        0.4543649445	        0.0000000000	       -0.0000000000	        0.0000000000	        0.0000000000	        0.0000000000	       -0.0000000000	        0.2076431971	        0.0000770316	        1.3583900146	       -0.0000000000	        0.0000000000	        0.0000000000	
        2.0780000000	       -0.0190430538	        0.0000000000	       -0.0442414210	        0.1988394961	        0.0000558755	       -0.3004071324	       -0.0288548823	        0.0003491779	        0.0357459907	       -0.0000000000	        0.0000000000	        0.0000000000	        0.2029003516	       -0.0000795827	        0.4543649445	        0.0000000000	       -0.0000000000	        0.0000000000	        0.0000000000	        0.0000000000	       -0.0000000000	        0.2076431971	        0.0000770316	        1.3583900146	       -0.0000000000	        0.0000000000	        0.0000000000	
        2.0790000000	       -0.0141738167	        0.0000000000	       -0.0305544411	        0.1988394961	        0.0000558755	       -0.3004071324	       -0.0209222792	        0.0004802642	        0.0256771143	       -0.0000000000	        0.0000000000	        0.0000000000	        0.2029003516	       -0.0000795827	        0.4543649445	        0.0000000000	       -0.0000000000	        0.0000000000	        0.0000000000	        0.0000000000	       -0.0000000000	        0.2076431971	        0.0000770316	        1.3583900146	       -0.0000000000	        0.0000000000	        0.0000000000	
        2.0800000000	       -0.0099808211	        0.0000000000	       -0.0193503752	        0.1988394961	        0.0000558755	       -0.3004071324	       -0.0142272815	        0.0005391285	        0.0172342633	       -0.0000000000	        0.0000000000	        0.0000000000	        0.2029003516	       -0.0000795827	        0.4543649445	        0.0000000000	       -0.0000000000	        0.0000000000	        0.0000000000	        0.0000000000	       -0.0000000000	        0.2076431971	        0.0000770316	        1.3583900146	       -0.0000000000	        0.0000000000	        0.0000000000	
        2.0810000000	       -0.0065095744	        0.0000000000	       -0.0105336301	        0.1988394961	        0.0000558755	       -0.3004071324	       -0.0087918326	        0.0005452881	        0.0104241212	       -0.0000000000	        0.0000000000	        0.0000000000	        0.2029003516	       -0.0000795827	        0.4543649445	        0.0000000000	       -0.0000000000	        0.0000000000	        0.0000000000	        0.0000000000	       -0.0000000000	        0.2076431971	        0.0000770316	        1.3583900146	       -0.0000000000	        0.0000000000	        0.0000000000	
        2.0820000000	       -0.0037457255	        0.0000000000	       -0.0038897019	        0.1988394961	        0.0000558755	       -0.3004071324	       -0.0045518818	        0.0005152921	        0.0051488924	       -0.0000000000	        0.0000000000	        0.0000000000	        0.2029003516	       -0.0000795827	        0.4543649445	        0.0000000000	       -0.0000000000	        0.0000000000	        0.0000000000	        0.0000000000	       -0.0000000000	        0.2076431971	        0.0000770316	        1.3583900146	       -0.0000000000	        0.0000000000	        0.0000000000	
